# xmcd CD database file
# Generated: Sat Sep 14 15:42:26 2002 by KSCD
# 
# Track frame offsets:
#       150
#       12018
#       26528
#       41725
#       54238
#       69195
#       80883
#       95235
#       119933
#       131960
#       144158
#
# Disc length: 2102 seconds
#
# Revision: 10
# Processed by: cddbd v1.4PL0 Copyright (c) Steve Scherf et al.
# Submitted via: Kscd 1.3.3
#
DISCID=9b08340b
DTITLE=Junior Wells and his Chicago Blues Band with Buddy Guy - Coming At You
DYEAR=1900
DGENRE=
TTITLE0=Stop Breakin' Down
TTITLE1=Somebody's Tippin In
TTITLE2=Five Long Years
TTITLE3=Mystery Train
TTITLE4=So Sad This Morning
TTITLE5=When My Baby Left Me
TTITLE6=Little By Little
TTITLE7=Tobacco Road
TTITLE8=Worried Life Blues
TTITLE9=I'm Your Hoochie Coochie Man
TTITLE10=You Don't Love Me
EXTD=\n\n        VMD 70262\n1988 Vanguard Records\nProduced by Samuel Chart
EXTD=ers\nOriginally Recorded in March.1969
EXTT0=
EXTT1=
EXTT2=
EXTT3=
EXTT4=
EXTT5=
EXTT6=
EXTT7=
EXTT8=
EXTT9=
EXTT10=
PLAYORDER=
